<mxfile host="app.diagrams.net" agent="Mozilla/5.0 (Windows NT 10.0; Win64; x64) AppleWebKit/537.36 (KHTML, like Gecko) Chrome/130.0.0.0 Safari/537.36" version="24.8.4">
  <diagram name="第 1 页" id="7idSwbRUixlsk93ej3mN">
    <mxGraphModel dx="1877" dy="557" grid="1" gridSize="10" guides="1" tooltips="1" connect="1" arrows="1" fold="1" page="1" pageScale="1" pageWidth="827" pageHeight="1169" math="0" shadow="0">
      <root>
        <mxCell id="0" />
        <mxCell id="1" parent="0" />
        <mxCell id="BSQ6jmJEHNrP7zoG_8HB-2" value="" style="whiteSpace=wrap;html=1;aspect=fixed;dashed=1;" vertex="1" parent="1">
          <mxGeometry x="-170" y="240" width="940" height="940" as="geometry" />
        </mxCell>
        <mxCell id="BSQ6jmJEHNrP7zoG_8HB-1" value="用户" style="rounded=1;whiteSpace=wrap;html=1;" vertex="1" parent="1">
          <mxGeometry x="260" y="100" width="120" height="60" as="geometry" />
        </mxCell>
        <mxCell id="BSQ6jmJEHNrP7zoG_8HB-5" value="" style="edgeStyle=orthogonalEdgeStyle;rounded=0;orthogonalLoop=1;jettySize=auto;html=1;exitX=0.5;exitY=1;exitDx=0;exitDy=0;" edge="1" parent="1" source="BSQ6jmJEHNrP7zoG_8HB-1" target="BSQ6jmJEHNrP7zoG_8HB-4">
          <mxGeometry relative="1" as="geometry">
            <mxPoint x="320" y="120" as="sourcePoint" />
            <mxPoint x="320" y="290" as="targetPoint" />
          </mxGeometry>
        </mxCell>
        <mxCell id="BSQ6jmJEHNrP7zoG_8HB-6" value="80" style="edgeLabel;html=1;align=center;verticalAlign=middle;resizable=0;points=[];" vertex="1" connectable="0" parent="BSQ6jmJEHNrP7zoG_8HB-5">
          <mxGeometry x="-0.61" relative="1" as="geometry">
            <mxPoint as="offset" />
          </mxGeometry>
        </mxCell>
        <mxCell id="BSQ6jmJEHNrP7zoG_8HB-13" style="edgeStyle=orthogonalEdgeStyle;rounded=0;orthogonalLoop=1;jettySize=auto;html=1;" edge="1" parent="1" source="BSQ6jmJEHNrP7zoG_8HB-4" target="BSQ6jmJEHNrP7zoG_8HB-8">
          <mxGeometry relative="1" as="geometry" />
        </mxCell>
        <mxCell id="BSQ6jmJEHNrP7zoG_8HB-19" value="/" style="edgeLabel;html=1;align=center;verticalAlign=middle;resizable=0;points=[];" vertex="1" connectable="0" parent="BSQ6jmJEHNrP7zoG_8HB-13">
          <mxGeometry x="0.7222" y="2" relative="1" as="geometry">
            <mxPoint as="offset" />
          </mxGeometry>
        </mxCell>
        <mxCell id="BSQ6jmJEHNrP7zoG_8HB-15" style="edgeStyle=orthogonalEdgeStyle;rounded=0;orthogonalLoop=1;jettySize=auto;html=1;" edge="1" parent="1" source="BSQ6jmJEHNrP7zoG_8HB-4" target="BSQ6jmJEHNrP7zoG_8HB-9">
          <mxGeometry relative="1" as="geometry" />
        </mxCell>
        <mxCell id="BSQ6jmJEHNrP7zoG_8HB-22" value="/lowcode" style="edgeLabel;html=1;align=center;verticalAlign=middle;resizable=0;points=[];" vertex="1" connectable="0" parent="BSQ6jmJEHNrP7zoG_8HB-15">
          <mxGeometry x="0.5878" y="1" relative="1" as="geometry">
            <mxPoint as="offset" />
          </mxGeometry>
        </mxCell>
        <mxCell id="BSQ6jmJEHNrP7zoG_8HB-16" style="edgeStyle=orthogonalEdgeStyle;rounded=0;orthogonalLoop=1;jettySize=auto;html=1;" edge="1" parent="1" source="BSQ6jmJEHNrP7zoG_8HB-4" target="BSQ6jmJEHNrP7zoG_8HB-11">
          <mxGeometry relative="1" as="geometry" />
        </mxCell>
        <mxCell id="BSQ6jmJEHNrP7zoG_8HB-23" value="/lowcode/api/bff" style="edgeLabel;html=1;align=center;verticalAlign=middle;resizable=0;points=[];" vertex="1" connectable="0" parent="BSQ6jmJEHNrP7zoG_8HB-16">
          <mxGeometry x="0.773" relative="1" as="geometry">
            <mxPoint as="offset" />
          </mxGeometry>
        </mxCell>
        <mxCell id="BSQ6jmJEHNrP7zoG_8HB-18" style="edgeStyle=orthogonalEdgeStyle;rounded=0;orthogonalLoop=1;jettySize=auto;html=1;" edge="1" parent="1" source="BSQ6jmJEHNrP7zoG_8HB-4" target="BSQ6jmJEHNrP7zoG_8HB-10">
          <mxGeometry relative="1" as="geometry" />
        </mxCell>
        <mxCell id="BSQ6jmJEHNrP7zoG_8HB-20" value="/api/bff" style="edgeLabel;html=1;align=center;verticalAlign=middle;resizable=0;points=[];" vertex="1" connectable="0" parent="BSQ6jmJEHNrP7zoG_8HB-18">
          <mxGeometry x="0.48" y="3" relative="1" as="geometry">
            <mxPoint as="offset" />
          </mxGeometry>
        </mxCell>
        <mxCell id="BSQ6jmJEHNrP7zoG_8HB-25" style="edgeStyle=orthogonalEdgeStyle;rounded=0;orthogonalLoop=1;jettySize=auto;html=1;entryX=0.5;entryY=0;entryDx=0;entryDy=0;" edge="1" parent="1" source="BSQ6jmJEHNrP7zoG_8HB-4" target="BSQ6jmJEHNrP7zoG_8HB-24">
          <mxGeometry relative="1" as="geometry" />
        </mxCell>
        <mxCell id="BSQ6jmJEHNrP7zoG_8HB-26" value="/api" style="edgeLabel;html=1;align=center;verticalAlign=middle;resizable=0;points=[];" vertex="1" connectable="0" parent="BSQ6jmJEHNrP7zoG_8HB-25">
          <mxGeometry x="0.1459" y="3" relative="1" as="geometry">
            <mxPoint as="offset" />
          </mxGeometry>
        </mxCell>
        <mxCell id="BSQ6jmJEHNrP7zoG_8HB-4" value="nginx" style="ellipse;whiteSpace=wrap;html=1;" vertex="1" parent="1">
          <mxGeometry x="260" y="260" width="120" height="80" as="geometry" />
        </mxCell>
        <mxCell id="BSQ6jmJEHNrP7zoG_8HB-8" value="doc-web" style="rounded=0;whiteSpace=wrap;html=1;" vertex="1" parent="1">
          <mxGeometry x="-130" y="410" width="120" height="60" as="geometry" />
        </mxCell>
        <mxCell id="BSQ6jmJEHNrP7zoG_8HB-9" value="lowcode-web" style="rounded=0;whiteSpace=wrap;html=1;" vertex="1" parent="1">
          <mxGeometry x="440" y="410" width="120" height="60" as="geometry" />
        </mxCell>
        <mxCell id="BSQ6jmJEHNrP7zoG_8HB-10" value="doc-bff" style="rounded=0;whiteSpace=wrap;html=1;" vertex="1" parent="1">
          <mxGeometry x="20" y="410" width="120" height="60" as="geometry" />
        </mxCell>
        <mxCell id="BSQ6jmJEHNrP7zoG_8HB-11" value="lowcode-bff" style="rounded=0;whiteSpace=wrap;html=1;" vertex="1" parent="1">
          <mxGeometry x="610" y="410" width="120" height="60" as="geometry" />
        </mxCell>
        <mxCell id="BSQ6jmJEHNrP7zoG_8HB-24" value="python" style="rounded=0;whiteSpace=wrap;html=1;" vertex="1" parent="1">
          <mxGeometry x="160" y="410" width="120" height="60" as="geometry" />
        </mxCell>
      </root>
    </mxGraphModel>
  </diagram>
</mxfile>
